<svg width="22" height="22" viewBox="0 0 22 22" fill="none" xmlns="http://www.w3.org/2000/svg">
<path d="M20.0521 8.29582L16.1333 4.44582L17.1187 3.4604C17.4854 3.09373 17.9248 2.9104 18.4369 2.9104C18.9484 2.9104 19.3799 3.09373 19.7312 3.4604L21.0146 4.76665C21.366 5.11804 21.5417 5.54582 21.5417 6.04998C21.5417 6.55415 21.366 6.98193 21.0146 7.33332L20.0521 8.29582ZM4.58333 21.725C4.07917 21.725 3.64742 21.5453 3.28808 21.186C2.92936 20.8273 2.75 20.3958 2.75 19.8916V7.05832C2.75 6.55415 2.92936 6.1224 3.28808 5.76307C3.64742 5.40434 4.07917 5.22498 4.58333 5.22498H12.7646L7.21875 10.7708C6.95903 11.0305 6.76042 11.3285 6.62292 11.6646C6.48542 12.0007 6.41667 12.3521 6.41667 12.7187V16.225C6.41667 16.7291 6.59633 17.1606 6.95567 17.5193C7.31439 17.8786 7.74583 18.0583 8.25 18.0583H11.7562C12.1229 18.0583 12.4743 17.9896 12.8104 17.8521C13.1465 17.7146 13.4444 17.516 13.7042 17.2562L19.25 11.6875V19.8916C19.25 20.3958 19.0706 20.8273 18.7119 21.186C18.3526 21.5453 17.9208 21.725 17.4167 21.725H4.58333ZM9.16667 16.225C8.90694 16.225 8.68939 16.1373 8.514 15.9619C8.338 15.7859 8.25 15.568 8.25 15.3083V13.0854C8.25 12.841 8.29583 12.6078 8.3875 12.386C8.47917 12.1648 8.60903 11.9701 8.77708 11.8021L14.8271 5.75207L18.7458 9.60207L12.6729 15.675C12.5049 15.843 12.3102 15.9769 12.089 16.0765C11.8672 16.1755 11.634 16.225 11.3896 16.225H9.16667Z" fill="#239041"/>
</svg>
